<?xml version="1.0" encoding="utf-8" ?><svg xmlns="http://www.w3.org/2000/svg" xmlns:xlink="http://www.w3.org/1999/xlink" width="1222" height="864" viewBox="0 0 1222 864"><path fill="#00d4aa" d="M1099.44 52.7421C1099.64 52.7128 1099.84 52.6836 1100.04 52.6543C1121.49 52.0421 1149.07 52.4734 1166.67 66.1998C1183.94 79.6628 1185.08 106.148 1174.15 123.911C1166.6 136.169 1157.97 147.999 1149.83 159.997L1102.55 229.553L966.049 429.128L857.09 588.931C846.079 605.246 834.981 621.502 823.796 637.699C805.272 665.104 790.441 694.933 753.347 698.02C726.693 700.366 701.059 687.203 687.435 664.174C678.353 648.598 673.483 609.829 670.048 590.642L648.274 471.834C646.149 460.18 644.085 448.516 642.08 436.841C640.343 426.865 638.426 408.528 630.595 401.516C623.092 394.798 612.117 397.385 605.321 404.125C596.894 412.483 589.516 422.359 581.909 431.703L537.15 486.66C528.228 497.434 517.78 507.675 503.071 508.938C483.451 510.623 469.499 496.374 455.589 484.632L427.915 461.902C423.402 458.199 411.888 448.445 407.212 446.27C388.272 437.458 376.956 445.585 359.153 429.127C349.29 420.005 343.533 407.284 343.19 393.853C342.835 380.727 347.816 368.018 356.994 358.628C366.223 349.239 378.79 343.88 391.954 343.72C413.424 343.384 432.472 357.436 438.488 378.049C440.675 385.718 441.506 398.629 445.473 405.185C453.237 417.332 464.601 427.858 474.359 438.469C482.015 446.794 494.477 452.776 502.42 441.126C509.204 431.176 514.465 420.592 520.241 410.097L557.473 343.239C574.393 312.384 585.48 277.881 626.47 274.919C641.75 273.676 656.892 278.6 668.519 288.593C681.135 299.608 700.734 337.425 710.346 353.76L752.734 425.91C758.361 435.696 766.249 453.619 774.546 460.119C799.125 479.375 811.464 446.452 819.046 431.505L839.614 391.022L929.128 214.842L954.117 165.596C963.534 146.901 972.597 126.943 986.082 110.884C1016.62 74.5105 1053.08 57.4787 1099.44 52.7421Z"/><path fill="#00d4aa" d="M425.589 33.1613C429.807 32.7205 433.376 32.8264 437.615 33.1276C459.276 34.5173 479.439 44.6604 493.467 61.2241C507.031 77.0286 513.92 99.6283 512.272 120.32C510.856 139.328 502.887 157.256 489.725 171.043C480.287 180.825 466.303 188.763 454.679 195.977L418.908 218.127L240.226 329.461L196.387 356.691C184.801 363.735 173.498 369.868 162.662 378.572C145.965 389.897 143.309 424.177 158.731 437.468C178.382 454.403 209.681 469.777 232.634 482.888L403.62 581.932L456.466 612.364C477.165 624.122 503.716 637.462 519.642 655.321C538.105 676.379 547.459 703.902 545.654 731.85C543.897 762.278 531.423 786.266 508.866 806.274C493.515 820.275 470.839 829.306 450.196 830.734C425.31 832.58 400.624 825.12 380.925 809.801C365.472 797.725 356.161 783.409 344.69 767.789L318.229 731.774L189.973 557.394L152.568 506.091C146.059 497.116 139.506 487.446 132.362 478.971C115.07 456.979 86.2674 467.963 66.946 450.123C46.575 431.314 46.4793 400.58 65.221 380.531C80.1875 364.52 101.746 370.506 116.263 354.674C125.415 344.693 134.045 334.468 142.816 324.257L187.589 272.19L304.893 135.713C325.483 111.735 346.025 87.6547 366.702 63.7426C382.806 45.1193 400.513 34.5089 425.589 33.1613Z"/></svg>